<?xml version="1.0" encoding="UTF-8" standalone="no"?>
<!-- Created with Inkscape (http://www.inkscape.org/) -->

<svg
   xmlns:dc="http://purl.org/dc/elements/1.1/"
   xmlns:cc="http://creativecommons.org/ns#"
   xmlns:rdf="http://www.w3.org/1999/02/22-rdf-syntax-ns#"
   xmlns:svg="http://www.w3.org/2000/svg"
   xmlns="http://www.w3.org/2000/svg"
   xmlns:sodipodi="http://sodipodi.sourceforge.net/DTD/sodipodi-0.dtd"
   xmlns:inkscape="http://www.inkscape.org/namespaces/inkscape"
   width="16mm"
   height="16.534399mm"
   viewBox="0 0 16 16.534399"
   version="1.1"
   id="svg4738"
   inkscape:version="0.92.1 r15371"
   sodipodi:docname="headlight.svg">
  <defs
     id="defs4732" />
  <sodipodi:namedview
     id="base"
     pagecolor="#ffffff"
     bordercolor="#666666"
     borderopacity="1.0"
     inkscape:pageopacity="0.0"
     inkscape:pageshadow="2"
     inkscape:zoom="1.0882637"
     inkscape:cx="307.56375"
     inkscape:cy="-230.24599"
     inkscape:document-units="mm"
     inkscape:current-layer="layer1"
     showgrid="false"
     fit-margin-top="0"
     fit-margin-left="0"
     fit-margin-right="0"
     fit-margin-bottom="0" />
  <metadata
     id="metadata4735">
    <rdf:RDF>
      <cc:Work
         rdf:about="">
        <dc:format>image/svg+xml</dc:format>
        <dc:type
           rdf:resource="http://purl.org/dc/dcmitype/StillImage" />
        <dc:title></dc:title>
      </cc:Work>
    </rdf:RDF>
  </metadata>
  <g
     inkscape:label="Layer 1"
     inkscape:groupmode="layer"
     id="layer1"
     transform="translate(25.50495,-71.379683)">
    <g
       transform="matrix(0.79999996,0,0,0.79999996,-297.81414,8.5143119)"
       id="g1386">
      <g
         id="g1293"
         transform="translate(-8.7624611,393.57771)">
        <path
           style="fill:#fdfdfd;stroke-width:0.26458332"
           d="m 361.05046,-300.33832 c 1.65651,-1.00999 1.93115,-1.83371 1.85296,-5.55768 l -0.0694,-3.30729 h -3.57188 -3.57187 l -0.0694,3.30729 c -0.0613,2.91977 -0.007,3.40833 0.4606,4.16961 1.10968,1.80532 3.28712,2.41357 4.96907,1.38807 z m -2.97898,-0.24031 c -0.29104,-0.12783 -0.82682,-0.55238 -1.19063,-0.94345 -0.60214,-0.64728 -0.66955,-0.9583 -0.75168,-3.46852 l -0.0902,-2.75748 h 3.22316 3.22317 l -0.0902,2.77364 c -0.0877,2.69575 -0.11321,2.79661 -0.90869,3.59149 -0.87361,0.87297 -2.42605,1.23863 -3.41487,0.80432 z"
           id="path1309"
           inkscape:connector-curvature="0"
           sodipodi:nodetypes="ccccccccccccccccccc" />
        <path
           style="fill:#d3d3d3;stroke-width:0.26458332"
           d="m 357.47375,-300.33861 c -1.65652,-1.00999 -1.93115,-1.83371 -1.85296,-5.55768 l 0.0694,-3.30729 h 3.57187 3.57188 l 0.0694,3.30729 c 0.0613,2.91977 0.007,3.40833 -0.4606,4.16961 -1.10969,1.80532 -3.28712,2.41357 -4.96907,1.38807 z m 4.0126,-1.04463 c 0.79548,-0.79488 0.821,-0.89574 0.90869,-3.59149 l 0.0902,-2.77364 h -3.22317 -3.22316 l 0.0902,2.75748 c 0.0821,2.51022 0.14954,2.82124 0.75168,3.46852 0.88535,0.95171 1.519,1.19713 2.75342,1.06643 0.70769,-0.0749 1.29172,-0.36734 1.85208,-0.9273 z"
           id="path1305"
           inkscape:connector-curvature="0"
           sodipodi:nodetypes="ccccccccccccccccccc" />
        <path
           style="fill:none;fill-rule:evenodd;stroke:#d3d3d3;stroke-width:0.5291667;stroke-linecap:butt;stroke-linejoin:miter;stroke-miterlimit:4;stroke-dasharray:none;stroke-opacity:1"
           d="m 356.88085,-298.48793 c 4.76248,2.6e-4 4.76248,2.6e-4 4.76248,2.6e-4"
           id="path1373"
           inkscape:connector-curvature="0" />
      </g>
      <ellipse
         style="color:#000000;display:inline;overflow:visible;visibility:visible;opacity:1;vector-effect:none;fill:none;fill-opacity:0.99209487;fill-rule:evenodd;stroke:#d3d3d3;stroke-width:0.3216826;stroke-linecap:butt;stroke-linejoin:miter;stroke-miterlimit:4;stroke-dasharray:none;stroke-dashoffset:0;stroke-opacity:1;marker:none;enable-background:accumulate"
         id="path1349"
         cx="350.38651"
         cy="88.915718"
         rx="9.839159"
         ry="10.173159" />
      <circle
         style="color:#000000;display:inline;overflow:visible;visibility:visible;opacity:1;vector-effect:none;fill:#d3d3d3;fill-opacity:1;fill-rule:evenodd;stroke:none;stroke-width:0.60000145;stroke-linecap:butt;stroke-linejoin:miter;stroke-miterlimit:4;stroke-dasharray:none;stroke-dashoffset:0;stroke-opacity:1;marker:none;enable-background:accumulate"
         id="path1375"
         cx="350.49051"
         cy="89.503677"
         r="2.0846522" />
      <circle
         r="0.73995245"
         cy="88.939049"
         cx="350.45544"
         id="circle1377"
         style="color:#000000;display:inline;overflow:visible;visibility:visible;opacity:1;vector-effect:none;fill:#000000;fill-opacity:1;fill-rule:evenodd;stroke:none;stroke-width:0.21297199;stroke-linecap:butt;stroke-linejoin:miter;stroke-miterlimit:4;stroke-dasharray:none;stroke-dashoffset:0;stroke-opacity:1;marker:none;enable-background:accumulate" />
    </g>
  </g>
</svg>
