<?xml version="1.0" encoding="UTF-8" standalone="no"?>
<svg
   xmlns:dc="http://purl.org/dc/elements/1.1/"
   xmlns:cc="http://creativecommons.org/ns#"
   xmlns:rdf="http://www.w3.org/1999/02/22-rdf-syntax-ns#"
   xmlns:svg="http://www.w3.org/2000/svg"
   xmlns="http://www.w3.org/2000/svg"
   xmlns:sodipodi="http://sodipodi.sourceforge.net/DTD/sodipodi-0.dtd"
   xmlns:inkscape="http://www.inkscape.org/namespaces/inkscape"
   version="1.1"
   x="0px"
   y="0px"
   viewBox="7.5 7.5 208.31724 113.65583"
   enable-background="new 7.5 7.5 50 50"
   xml:space="preserve"
   id="svg14"
   sodipodi:docname="dianban_logo.svg"
   width="208.31725"
   height="113.65583"
   inkscape:version="0.92.3 (2405546, 2018-03-11)"><metadata
   id="metadata20"><rdf:RDF><cc:Work
       rdf:about=""><dc:format>image/svg+xml</dc:format><dc:type
         rdf:resource="http://purl.org/dc/dcmitype/StillImage" /><dc:title></dc:title></cc:Work></rdf:RDF></metadata><defs
   id="defs18" /><sodipodi:namedview
   pagecolor="#ffffff"
   bordercolor="#666666"
   borderopacity="1"
   objecttolerance="10"
   gridtolerance="10"
   guidetolerance="10"
   inkscape:pageopacity="0"
   inkscape:pageshadow="2"
   inkscape:window-width="640"
   inkscape:window-height="480"
   id="namedview16"
   showgrid="false"
   fit-margin-top="0"
   fit-margin-left="0"
   fit-margin-right="0"
   fit-margin-bottom="0"
   inkscape:zoom="1.9749956"
   inkscape:cx="98.486802"
   inkscape:cy="32.216861"
   inkscape:window-x="0"
   inkscape:window-y="27"
   inkscape:window-maximized="0"
   inkscape:current-layer="svg14" /><rect
   ry="0"
   rx="0"
   y="7.6350002"
   x="113.635"
   height="113.38583"
   width="102.04724"
   id="rect853"
   style="color:#000000;display:inline;overflow:visible;visibility:visible;opacity:1;vector-effect:none;fill:#000000;fill-opacity:0.96078431;fill-rule:evenodd;stroke:#e27985;stroke-width:0.27000001;stroke-linecap:butt;stroke-linejoin:miter;stroke-miterlimit:4;stroke-dasharray:none;stroke-dashoffset:0;stroke-opacity:0.96047429;marker:none;enable-background:accumulate" /><rect
   style="color:#000000;display:inline;overflow:visible;visibility:visible;opacity:1;vector-effect:none;fill:#000000;fill-opacity:0.98406372;fill-rule:evenodd;stroke:#000000;stroke-width:0.14362206;stroke-linecap:butt;stroke-linejoin:miter;stroke-miterlimit:4;stroke-dasharray:none;stroke-dashoffset:0;stroke-opacity:0.92430282;marker:none;enable-background:accumulate"
   id="rect2665"
   width="384.20959"
   height="84.526108"
   x="-144.79761"
   y="-577.1842"
   rx="3.18626"
   ry="3.18626" /><path
   d="m 73.241346,-253.98291 h 47.416004 v -8.335 c 0,-0.894 -0.727,-1.62 -1.62,-1.62 H 74.862346 c -0.894,0 -1.621,0.727 -1.621,1.62 z m 35.604004,-5.477 h 5.698 c 0.276,0 0.5,0.224 0.5,0.5 0,0.276 -0.224,0.5 -0.5,0.5 h -5.698 c -0.276,0 -0.5,-0.224 -0.5,-0.5 0,-0.276 0.224,-0.5 0.5,-0.5 z m -29.491004,0 h 2.35 v -2.35 c 0,-0.276 0.224,-0.5 0.5,-0.5 0.276,0 0.5,0.224 0.5,0.5 v 2.35 h 2.349 c 0.276,0 0.5,0.224 0.5,0.5 0,0.276 -0.224,0.5 -0.5,0.5 h -2.349 v 2.349 c 0,0.276 -0.224,0.5 -0.5,0.5 -0.276,0 -0.5,-0.224 -0.5,-0.5 v -2.349 h -2.35 c -0.276,0 -0.5,-0.224 -0.5,-0.5 0,-0.276 0.223,-0.5 0.5,-0.5 z"
   id="path2"
   inkscape:connector-curvature="0" /><path
   d="M 120.65735,-252.98291 H 73.241346 v 24.77 c 0,0.894 0.727,1.62 1.621,1.62 h 44.175004 c 0.894,0 1.62,-0.727 1.62,-1.62 z"
   id="path4"
   inkscape:connector-curvature="0" /><path
   d="m 76.783346,-264.93791 h 10.839 v -0.384 c 0,-0.894 -0.727,-1.621 -1.62,-1.621 h -7.599 c -0.894,0 -1.621,0.727 -1.621,1.621 v 0.384 z"
   id="path6"
   inkscape:connector-curvature="0" /><path
   d="m 106.27435,-264.93791 h 10.841 v -0.384 c 0,-0.894 -0.727,-1.621 -1.62,-1.621 h -7.6 c -0.894,0 -1.621,0.727 -1.621,1.621 z"
   id="path8"
   inkscape:connector-curvature="0" /><text
   xml:space="preserve"
   style="font-style:normal;font-variant:normal;font-weight:300;font-stretch:normal;font-size:64px;line-height:125%;font-family:Comfortaa;-inkscape-font-specification:'Comfortaa Light';font-variant-ligatures:normal;font-variant-caps:normal;font-variant-numeric:normal;font-feature-settings:normal;text-align:start;letter-spacing:0px;word-spacing:0px;writing-mode:lr-tb;text-anchor:start;fill:#fefefe;fill-opacity:1;stroke:none;stroke-width:1px;stroke-linecap:butt;stroke-linejoin:miter;stroke-opacity:1"
   x="-140.47525"
   y="-514.75012"
   id="text817"><tspan
     sodipodi:role="line"
     id="tspan815"
     x="-140.47525"
     y="-514.75012">donts.store</tspan><tspan
     sodipodi:role="line"
     x="-140.47525"
     y="-434.75012"
     id="tspan819" /></text>



<text
   id="text825"
   y="-421.57928"
   x="-148.63971"
   style="font-style:normal;font-variant:normal;font-weight:300;font-stretch:normal;font-size:64px;line-height:125%;font-family:Comfortaa;-inkscape-font-specification:'Comfortaa Light';font-variant-ligatures:normal;font-variant-caps:normal;font-variant-numeric:normal;font-feature-settings:normal;text-align:start;letter-spacing:0px;word-spacing:0px;writing-mode:lr-tb;text-anchor:start;fill:#000000;fill-opacity:1;stroke:none;stroke-width:1px;stroke-linecap:butt;stroke-linejoin:miter;stroke-opacity:1"
   xml:space="preserve"><tspan
     y="-421.57928"
     x="-148.63971"
     id="tspan821"
     sodipodi:role="line">donts.store</tspan><tspan
     id="tspan823"
     y="-341.57928"
     x="-148.63971"
     sodipodi:role="line" /></text>



<text
   xml:space="preserve"
   style="font-style:italic;font-variant:normal;font-weight:bold;font-stretch:normal;font-size:64px;line-height:125%;font-family:'Lobster Two';-inkscape-font-specification:'Lobster Two Bold Italic';font-variant-ligatures:normal;font-variant-caps:normal;font-variant-numeric:normal;font-feature-settings:normal;text-align:start;letter-spacing:0px;word-spacing:0px;writing-mode:lr-tb;text-anchor:start;fill:#000000;fill-opacity:1;stroke:none;stroke-width:1px;stroke-linecap:butt;stroke-linejoin:miter;stroke-opacity:1"
   x="-148.63968"
   y="-343.77682"
   id="text835"><tspan
     sodipodi:role="line"
     id="tspan833"
     x="-148.63968"
     y="-343.77682">donts.store</tspan></text>



<path
   inkscape:connector-curvature="0"
   style="clip-rule:evenodd;fill-rule:evenodd;stroke-width:3.77952743;image-rendering:optimizeQuality;shape-rendering:geometricPrecision;text-rendering:geometricPrecision"
   class="fil0"
   d="m 254.66453,-343.79884 h 39.68504 v 24.3016 c -3.40875,-3.34223 -8.07722,-5.40397 -13.22721,-5.40397 -10.43527,0 -18.89764,8.46237 -18.89764,18.89764 0,10.43528 8.46237,18.89764 18.89764,18.89764 5.14999,0 9.81846,-2.06286 13.22721,-5.4051 v 2.57046 c 0,1.5651 1.26955,2.83464 2.83465,2.83464 1.5651,0 2.83464,-1.26954 2.83464,-2.83464 v -53.85827 h 11.33859 v 37.72648 l -10e-4,0.0862 10e-4,0.0858 v 15.97721 c 0,1.5651 1.26954,2.83464 2.83464,2.83464 1.5651,0 2.83465,-1.26954 2.83465,-2.83464 v -2.57046 c 3.40875,3.34223 8.07723,5.4051 13.22721,5.4051 10.43528,0 18.89763,-8.46236 18.89763,-18.89764 0,-10.43528 -8.46235,-18.89764 -18.89763,-18.89764 -5.14998,0 -9.81846,2.06173 -13.22721,5.40397 v -24.31899 h 39.68503 v 113.3858 H 254.66453 Z m 34.39219,81.79767 c 3.76403,2.54816 6.23887,6.85833 6.23887,11.74526 0,7.82664 -6.34658,14.17323 -14.17323,14.17323 -7.82664,0 -14.17323,-6.34659 -14.17323,-14.17323 0,-4.88693 2.47484,-9.1971 6.23887,-11.74526 -2.10028,-2.05795 -3.40422,-4.9251 -3.40422,-8.09726 0,-6.26117 5.07742,-11.33858 11.33858,-11.33858 6.26117,0 11.33858,5.07741 11.33858,11.33858 0,3.17216 -1.30393,6.03931 -3.40422,8.09726 z m -7.93436,-13.76655 c 3.13058,0 5.66929,2.53871 5.66929,5.66929 0,3.13058 -2.53871,5.66929 -5.66929,5.66929 -3.13058,0 -5.66929,-2.53871 -5.66929,-5.66929 0,-3.13058 2.53871,-5.66929 5.66929,-5.66929 z m 0,17.00787 c 4.69606,0 8.50394,3.80825 8.50394,8.50394 0,4.69606 -3.80788,8.50393 -8.50394,8.50393 -4.69568,0 -8.50394,-3.80787 -8.50394,-8.50393 0,-4.69569 3.80826,-8.50394 8.50394,-8.50394 z m 24.5658,17.00825 c 1.5651,0 2.83464,1.26955 2.83464,2.83465 0,1.5651 -1.26954,2.83464 -2.83464,2.83464 -1.56511,0 -2.83465,-1.26954 -2.83465,-2.83464 0,-1.5651 1.26954,-2.83465 2.83465,-2.83465 z m 8.58255,-39.68201 h 32.12598 c 1.5651,0 2.83464,1.26954 2.83464,2.83464 0,0.55484 -0.16063,1.0715 -0.43653,1.50841 l 0.007,0.004 -22.06601,39.49228 c -0.35112,0.65235 -0.95547,1.16788 -1.7246,1.38482 -1.50577,0.42785 -3.07276,-0.449 -3.49871,-1.95363 -0.21354,-0.75289 -0.10167,-1.52164 0.25209,-2.15509 l -7.5e-4,-3.8e-4 19.8051,-35.44592 h -27.29821 c -1.56511,0 -2.83465,-1.26954 -2.83465,-2.83464 0,-1.56511 1.26954,-2.83465 2.83465,-2.83465 z m 2.75603,-24.46716 v -0.17083 c 0.0461,-7.26539 5.95086,-13.14293 13.22721,-13.14293 7.30469,0 13.22835,5.92365 13.22835,13.22835 0,7.30469 -5.92366,13.22835 -13.22835,13.22835 -7.27635,0 -13.1811,-5.87755 -13.22721,-13.14294 z m -22.67717,-0.0189 v -0.17083 c -0.0461,-7.26538 -5.95086,-13.14293 -13.22721,-13.14293 -7.30469,0 -13.22835,5.92366 -13.22835,13.22835 0,7.30469 5.92366,13.22835 13.22835,13.22835 7.27635,0 13.1811,-5.87755 13.22721,-13.14293 z"
   id="path2045" /><path
   inkscape:connector-curvature="0"
   style="clip-rule:evenodd;fill-rule:evenodd;stroke-width:3.77952743;image-rendering:optimizeQuality;shape-rendering:geometricPrecision;text-rendering:geometricPrecision"
   class="fil0"
   d="m 403.54576,-589.69298 h 39.68503 v 24.30161 c -3.40875,-3.34224 -8.07722,-5.40397 -13.22721,-5.40397 -10.43527,0 -18.89764,8.46236 -18.89764,18.89763 0,10.43528 8.46237,18.89764 18.89764,18.89764 5.14999,0 9.81846,-2.06286 13.22721,-5.4051 v 2.57046 c 0,1.5651 1.26955,2.83464 2.83465,2.83464 1.5651,0 2.83465,-1.26954 2.83465,-2.83464 v -53.85827 h 11.33858 v 37.72649 l -0.001,0.0862 0.001,0.0858 v 15.97719 c 0,1.56511 1.26954,2.83465 2.83464,2.83465 1.56511,0 2.83465,-1.26954 2.83465,-2.83465 v -2.57045 c 3.40876,3.34223 8.07723,5.4051 13.22721,5.4051 10.43528,0 18.89764,-8.46236 18.89764,-18.89764 0,-10.43527 -8.46236,-18.89764 -18.89764,-18.89764 -5.14998,0 -9.81845,2.06174 -13.22721,5.40397 v -24.31899 H 505.593 v 113.38583 H 403.54576 Z m 34.39218,81.79767 c 3.76404,2.54815 6.23887,6.85833 6.23887,11.74526 0,7.82664 -6.34658,14.17323 -14.17323,14.17323 -7.82664,0 -14.17323,-6.34659 -14.17323,-14.17323 0,-4.88693 2.47484,-9.19711 6.23887,-11.74526 -2.10028,-2.05796 -3.40422,-4.9251 -3.40422,-8.09726 0,-6.26117 5.07742,-11.33858 11.33858,-11.33858 6.26117,0 11.33858,5.07741 11.33858,11.33858 0,3.17216 -1.30393,6.0393 -3.40422,8.09726 z m -7.93436,-13.76655 c 3.13058,0 5.66929,2.53871 5.66929,5.66929 0,3.13058 -2.53871,5.66929 -5.66929,5.66929 -3.13058,0 -5.66929,-2.53871 -5.66929,-5.66929 0,-3.13058 2.53871,-5.66929 5.66929,-5.66929 z m 0,17.00787 c 4.69606,0 8.50394,3.80825 8.50394,8.50394 0,4.69606 -3.80788,8.50393 -8.50394,8.50393 -4.69568,0 -8.50394,-3.80787 -8.50394,-8.50393 0,-4.69569 3.80826,-8.50394 8.50394,-8.50394 z m 24.5658,17.00825 c 1.5651,0 2.83464,1.26955 2.83464,2.83465 0,1.5651 -1.26954,2.83464 -2.83464,2.83464 -1.56511,0 -2.83465,-1.26954 -2.83465,-2.83464 0,-1.5651 1.26954,-2.83465 2.83465,-2.83465 z m 8.58255,-39.68201 h 32.12598 c 1.56511,0 2.83465,1.26954 2.83465,2.83464 0,0.55484 -0.16063,1.0715 -0.43653,1.50841 l 0.007,0.004 -22.06602,39.49228 c -0.35112,0.65235 -0.95547,1.16788 -1.7246,1.38482 -1.50577,0.42785 -3.07276,-0.449 -3.49871,-1.95363 -0.21354,-0.75289 -0.10167,-1.52164 0.25209,-2.15509 l -7.5e-4,-3.8e-4 19.8051,-35.44592 h -27.29821 c -1.5651,0 -2.83465,-1.26954 -2.83465,-2.83465 0,-1.5651 1.26955,-2.83464 2.83465,-2.83464 z m 2.75603,-24.46715 v -0.17084 c 0.0461,-7.26538 5.95087,-13.14293 13.22721,-13.14293 7.30469,0 13.22835,5.92366 13.22835,13.22835 0,7.30469 -5.92366,13.22835 -13.22835,13.22835 -7.27634,0 -13.1811,-5.87755 -13.22721,-13.14293 z m -22.67717,-0.0189 v -0.17083 c -0.0461,-7.26539 -5.95086,-13.14293 -13.22721,-13.14293 -7.30469,0 -13.22834,5.92365 -13.22834,13.22834 0,7.3047 5.92365,13.22835 13.22834,13.22835 7.27635,0 13.1811,-5.87754 13.22721,-13.14293 z"
   id="path2045-3" /><path
   inkscape:connector-curvature="0"
   style="clip-rule:evenodd;fill-rule:evenodd;stroke:#ffffff;stroke-width:3.77952743;stroke-opacity:1;image-rendering:optimizeQuality;shape-rendering:geometricPrecision;text-rendering:geometricPrecision"
   class="fil2"
   d="m 473.61483,-588.43131 c 6.26117,0 11.33858,5.07742 11.33858,11.33858 0,6.26117 -5.07741,11.33858 -11.33858,11.33858 -6.26116,0 -11.33858,-5.07741 -11.33858,-11.33858 0,-6.26116 5.07742,-11.33858 11.33858,-11.33858 z m 0,5.66929 c 3.13058,0 5.66929,2.53871 5.66929,5.66929 0,3.13058 -2.53871,5.66929 -5.66929,5.66929 -3.13058,0 -5.66929,-2.53871 -5.66929,-5.66929 0,-3.13058 2.53871,-5.66929 5.66929,-5.66929 z"
   id="path2047" /><rect
   ry="4.6270347"
   rx="5.587574"
   y="-697.1842"
   x="-157.28226"
   height="84.526108"
   width="434.15466"
   id="rect2667"
   style="color:#000000;display:inline;overflow:visible;visibility:visible;opacity:1;vector-effect:none;fill:#000000;fill-opacity:0.98406372;fill-rule:evenodd;stroke:#000000;stroke-width:0.14362206;stroke-linecap:butt;stroke-linejoin:miter;stroke-miterlimit:4;stroke-dasharray:none;stroke-dashoffset:0;stroke-opacity:0.92430282;marker:none;enable-background:accumulate" /><text
   id="text2673"
   y="-634.75012"
   x="-140.47525"
   style="font-style:normal;font-variant:normal;font-weight:300;font-stretch:normal;font-size:64px;line-height:125%;font-family:Comfortaa;-inkscape-font-specification:'Comfortaa Light';font-variant-ligatures:normal;font-variant-caps:normal;font-variant-numeric:normal;font-feature-settings:normal;text-align:start;letter-spacing:0px;word-spacing:0px;writing-mode:lr-tb;text-anchor:start;fill:#fefefe;fill-opacity:1;stroke:none;stroke-width:1px;stroke-linecap:butt;stroke-linejoin:miter;stroke-opacity:1"
   xml:space="preserve"><tspan
     y="-634.75012"
     x="-140.47525"
     id="tspan2669"
     sodipodi:role="line">dos &amp; dont's</tspan><tspan
     id="tspan2671"
     y="-554.75012"
     x="-140.47525"
     sodipodi:role="line" /></text>



<rect
   style="color:#000000;display:inline;overflow:visible;visibility:visible;opacity:1;vector-effect:none;fill:#000000;fill-opacity:0.98406372;fill-rule:evenodd;stroke:#000000;stroke-width:0.14362206;stroke-linecap:butt;stroke-linejoin:miter;stroke-miterlimit:4;stroke-dasharray:none;stroke-dashoffset:0;stroke-opacity:0.92430282;marker:none;enable-background:accumulate"
   id="rect2675"
   width="434.15466"
   height="84.526108"
   x="-157.28226"
   y="-797.1842"
   rx="5.587574"
   ry="4.6270347" /><text
   xml:space="preserve"
   style="font-style:normal;font-variant:normal;font-weight:300;font-stretch:normal;font-size:64px;line-height:125%;font-family:Comfortaa;-inkscape-font-specification:'Comfortaa Light';font-variant-ligatures:normal;font-variant-caps:normal;font-variant-numeric:normal;font-feature-settings:normal;text-align:start;letter-spacing:0px;word-spacing:0px;writing-mode:lr-tb;text-anchor:start;fill:#fefefe;fill-opacity:1;stroke:none;stroke-width:1px;stroke-linecap:butt;stroke-linejoin:miter;stroke-opacity:1"
   x="-140.47525"
   y="-734.75012"
   id="text2681"><tspan
     sodipodi:role="line"
     id="tspan2677"
     x="-140.47525"
     y="-734.75012">Dos &amp; Dont's</tspan><tspan
     sodipodi:role="line"
     x="-140.47525"
     y="-654.75012"
     id="tspan2679" /></text>



<text
   id="text837"
   y="-143.77684"
   x="-148.63968"
   style="font-style:italic;font-variant:normal;font-weight:bold;font-stretch:normal;font-size:64px;line-height:125%;font-family:'Lobster Two';-inkscape-font-specification:'Lobster Two Bold Italic';font-variant-ligatures:normal;font-variant-caps:normal;font-variant-numeric:normal;font-feature-settings:normal;text-align:start;letter-spacing:0px;word-spacing:0px;writing-mode:lr-tb;text-anchor:start;fill:#000000;fill-opacity:1;stroke:none;stroke-width:1px;stroke-linecap:butt;stroke-linejoin:miter;stroke-opacity:1"
   xml:space="preserve"><tspan
     y="-143.77684"
     x="-148.63968"
     sodipodi:role="line"
     id="tspan839">Dos'n'Donts.Store</tspan></text>


<text
   xml:space="preserve"
   style="font-style:italic;font-variant:normal;font-weight:bold;font-stretch:normal;font-size:64px;line-height:125%;font-family:'Astoria Deco';-inkscape-font-specification:'Astoria Deco Bold Italic';font-variant-ligatures:normal;font-variant-caps:normal;font-variant-numeric:normal;font-feature-settings:normal;text-align:start;letter-spacing:0px;word-spacing:0px;writing-mode:lr-tb;text-anchor:start;fill:#000000;fill-opacity:1;stroke:none;stroke-width:1px;stroke-linecap:butt;stroke-linejoin:miter;stroke-opacity:1"
   x="-148.63968"
   y="-63.776836"
   id="text845"><tspan
     id="tspan843"
     sodipodi:role="line"
     x="-148.63968"
     y="-63.776836">Dos'n'Donts.Store</tspan></text>




<text
   xml:space="preserve"
   style="font-style:normal;font-variant:normal;font-weight:normal;font-stretch:normal;font-size:64px;line-height:125%;font-family:Comfortaa;-inkscape-font-specification:Comfortaa;font-variant-ligatures:normal;font-variant-caps:normal;font-variant-numeric:normal;font-feature-settings:normal;text-align:start;letter-spacing:0px;word-spacing:0px;writing-mode:lr-tb;text-anchor:start;fill:#000000;fill-opacity:1;stroke:none;stroke-width:1px;stroke-linecap:butt;stroke-linejoin:miter;stroke-opacity:1"
   x="-148.63968"
   y="116.22317"
   id="text843"><tspan
     id="tspan841"
     sodipodi:role="line"
     x="-148.63968"
     y="116.22317">电板</tspan></text>

<text
   id="text847"
   y="196.22316"
   x="-148.63968"
   style="font-style:normal;font-variant:normal;font-weight:normal;font-stretch:normal;font-size:64px;line-height:125%;font-family:'DejaVu Sans Mono';-inkscape-font-specification:'DejaVu Sans Mono';font-variant-ligatures:normal;font-variant-caps:normal;font-variant-numeric:normal;font-feature-settings:normal;text-align:start;letter-spacing:0px;word-spacing:0px;writing-mode:lr-tb;text-anchor:start;fill:#000000;fill-opacity:1;stroke:none;stroke-width:1px;stroke-linecap:butt;stroke-linejoin:miter;stroke-opacity:1"
   xml:space="preserve"><tspan
     y="196.22316"
     x="-148.63968"
     sodipodi:role="line"
     id="tspan845">电板</tspan></text>

<text
   xml:space="preserve"
   style="font-style:normal;font-variant:normal;font-weight:normal;font-stretch:normal;font-size:64px;line-height:125%;font-family:'DejaVu Sans Mono';-inkscape-font-specification:'DejaVu Sans Mono';font-variant-ligatures:normal;font-variant-caps:normal;font-variant-numeric:normal;font-feature-settings:normal;text-align:start;letter-spacing:0px;word-spacing:0px;writing-mode:lr-tb;text-anchor:start;fill:#000000;fill-opacity:1;stroke:none;stroke-width:1px;stroke-linecap:butt;stroke-linejoin:miter;stroke-opacity:1"
   x="-148.63968"
   y="256.22318"
   id="text851"><tspan
     id="tspan849"
     sodipodi:role="line"
     x="-148.63968"
     y="256.22318">电板</tspan></text>

<text
   id="text855"
   y="316.22318"
   x="-148.63968"
   style="font-style:normal;font-variant:normal;font-weight:normal;font-stretch:normal;font-size:64px;line-height:125%;font-family:'DejaVu Sans Mono';-inkscape-font-specification:'DejaVu Sans Mono';font-variant-ligatures:normal;font-variant-caps:normal;font-variant-numeric:normal;font-feature-settings:normal;text-align:start;letter-spacing:0px;word-spacing:0px;writing-mode:lr-tb;text-anchor:start;fill:#000000;fill-opacity:1;stroke:none;stroke-width:1px;stroke-linecap:butt;stroke-linejoin:miter;stroke-opacity:1"
   xml:space="preserve"><tspan
     y="316.22318"
     x="-148.63968"
     sodipodi:role="line"
     id="tspan853">电板</tspan></text>

<text
   xml:space="preserve"
   style="font-style:normal;font-variant:normal;font-weight:normal;font-stretch:normal;font-size:64px;line-height:125%;font-family:'DejaVu Sans Mono';-inkscape-font-specification:'DejaVu Sans Mono';font-variant-ligatures:normal;font-variant-caps:normal;font-variant-numeric:normal;font-feature-settings:normal;text-align:start;letter-spacing:0px;word-spacing:0px;writing-mode:lr-tb;text-anchor:start;fill:#000000;fill-opacity:1;stroke:none;stroke-width:1px;stroke-linecap:butt;stroke-linejoin:miter;stroke-opacity:1"
   x="-148.63968"
   y="376.22318"
   id="text859"><tspan
     id="tspan857"
     sodipodi:role="line"
     x="-148.63968"
     y="376.22318">电板</tspan></text>

<rect
   style="color:#000000;display:inline;overflow:visible;visibility:visible;opacity:1;vector-effect:none;fill:#000000;fill-opacity:0.96078431;fill-rule:evenodd;stroke:#e27985;stroke-width:0.27000001;stroke-linecap:butt;stroke-linejoin:miter;stroke-miterlimit:4;stroke-dasharray:none;stroke-dashoffset:0;stroke-opacity:0.96047429;marker:none;enable-background:accumulate"
   id="rect851"
   width="102.04724"
   height="113.38583"
   x="7.6350002"
   y="7.6350002"
   rx="0"
   ry="0" /><text
   id="text849"
   y="103.01977"
   x="-0.72754884"
   style="font-style:normal;font-variant:normal;font-weight:normal;font-stretch:normal;font-size:110.11229706px;line-height:125%;font-family:'DejaVu Sans Mono';-inkscape-font-specification:'DejaVu Sans Mono';font-variant-ligatures:normal;font-variant-caps:normal;font-variant-numeric:normal;font-feature-settings:normal;text-align:start;letter-spacing:0px;word-spacing:0px;writing-mode:lr-tb;text-anchor:start;fill:#ffffff;fill-opacity:1;stroke:none;stroke-width:1.72050464px;stroke-linecap:butt;stroke-linejoin:miter;stroke-opacity:1"
   xml:space="preserve"><tspan
     y="103.01977"
     x="-0.72754884"
     sodipodi:role="line"
     id="tspan847"
     style="stroke-width:1.72050464px">电板</tspan></text>
</svg>